<svg width="16" height="16" viewBox="0 0 16 16" fill="none" xmlns="http://www.w3.org/2000/svg">
<path d="M0.5 8.9375C0.5 8.42 0.92 8 1.4375 8H3.3125C3.83 8 4.25 8.42 4.25 8.9375V14.5625C4.25 15.08 3.83 15.5 3.3125 15.5H1.4375C1.18886 15.5 0.950403 15.4012 0.774587 15.2254C0.598772 15.0496 0.5 14.8111 0.5 14.5625V8.9375ZM6.125 5.1875C6.125 4.67 6.545 4.25 7.0625 4.25H8.9375C9.455 4.25 9.875 4.67 9.875 5.1875V14.5625C9.875 15.08 9.455 15.5 8.9375 15.5H7.0625C6.81386 15.5 6.5754 15.4012 6.39959 15.2254C6.22377 15.0496 6.125 14.8111 6.125 14.5625V5.1875ZM11.75 1.4375C11.75 0.92 12.17 0.5 12.6875 0.5H14.5625C15.08 0.5 15.5 0.92 15.5 1.4375V14.5625C15.5 15.08 15.08 15.5 14.5625 15.5H12.6875C12.4389 15.5 12.2004 15.4012 12.0246 15.2254C11.8488 15.0496 11.75 14.8111 11.75 14.5625V1.4375Z" stroke="#2685F1" stroke-linecap="round" stroke-linejoin="round"/>
</svg>
