<svg width="160" height="33" viewBox="0 0 160 33" fill="none" xmlns="http://www.w3.org/2000/svg">
<path d="M48.5257 19.6515C48.5257 19.3567 48.474 19.0808 48.3705 18.8238C48.2744 18.5667 48.1081 18.3248 47.8716 18.0981C47.6277 17.8788 47.3099 17.6785 46.9181 17.497C46.5338 17.308 46.0534 17.1341 45.4769 16.9754C44.5827 16.7259 43.7954 16.4236 43.1155 16.0682C42.4428 15.7129 41.8923 15.3237 41.4637 14.9003C41.0349 14.4769 40.7097 14.0082 40.4881 13.4942C40.2736 12.9801 40.1665 12.4207 40.1665 11.8159C40.1665 11.1204 40.3106 10.4891 40.5989 9.92217C40.8871 9.35518 41.2862 8.87136 41.7961 8.4707C42.3062 8.07004 42.9085 7.76386 43.6033 7.5522C44.298 7.33296 45.0519 7.22335 45.8649 7.22335C46.7075 7.22335 47.4761 7.34808 48.1709 7.59755C48.8731 7.84702 49.4754 8.19477 49.978 8.64078C50.4806 9.09438 50.8723 9.63112 51.1531 10.251C51.4341 10.8709 51.5744 11.5513 51.5744 12.2921H48.5367C48.5219 11.9217 48.4555 11.5815 48.3372 11.2716C48.2263 10.9616 48.0601 10.6933 47.8383 10.4665C47.6092 10.2472 47.3247 10.0771 46.9846 9.95619C46.6521 9.82769 46.2604 9.76341 45.8095 9.76341C45.3956 9.76341 45.0261 9.81634 44.7008 9.92217C44.383 10.0205 44.1132 10.1603 43.8916 10.3417C43.6698 10.5307 43.4998 10.7537 43.3815 11.0108C43.2707 11.2602 43.2153 11.5324 43.2153 11.8272C43.2153 12.1372 43.2892 12.4169 43.437 12.6663C43.5921 12.9158 43.8139 13.1388 44.1022 13.3354C44.3904 13.5395 44.7378 13.7247 45.1444 13.891C45.5582 14.0573 46.0238 14.2123 46.5412 14.356C47.0956 14.5147 47.624 14.7075 48.1266 14.9343C48.6292 15.1611 49.0911 15.4218 49.5123 15.7167C50.148 16.2005 50.6543 16.7638 51.0312 17.4063C51.4081 18.0488 51.5966 18.7898 51.5966 19.6289C51.5966 20.3546 51.4524 21.001 51.1643 21.5679C50.8834 22.1273 50.4916 22.5998 49.989 22.9854C49.4865 23.3785 48.8878 23.6771 48.193 23.8813C47.4984 24.0778 46.7407 24.1761 45.9203 24.1761C45.1148 24.1761 44.3165 24.0552 43.5257 23.8132C42.7423 23.5637 42.0585 23.2009 41.4747 22.7246C40.9203 22.2559 40.4806 21.7041 40.1555 21.069C39.8376 20.4339 39.6787 19.6894 39.6787 18.8351H42.7386C42.7533 19.334 42.8383 19.7612 42.9935 20.1164C43.1487 20.4718 43.3668 20.7628 43.6477 20.9897C43.9212 21.2164 44.25 21.3828 44.6343 21.4885C45.0261 21.5944 45.4547 21.6474 45.9203 21.6474C46.3343 21.6474 46.7001 21.5982 47.0179 21.4999C47.3432 21.4016 47.6165 21.2656 47.8383 21.0917C48.0601 20.9178 48.2301 20.7099 48.3484 20.468C48.4665 20.2186 48.5257 19.9464 48.5257 19.6515ZM61.7185 23.9606L61.5412 22.2369C61.1346 22.8493 60.6432 23.3294 60.0667 23.6771C59.4976 24.0249 58.873 24.1988 58.193 24.1988C57.5723 24.1988 57.0031 24.1005 56.4857 23.9039C55.9683 23.7074 55.5249 23.3936 55.1554 22.9627C54.7858 22.5394 54.4976 21.9989 54.2906 21.3412C54.0911 20.6759 53.9913 19.8784 53.9913 18.9485V11.6912H57.0733V18.9711C57.0733 19.4702 57.1066 19.8897 57.1731 20.2299C57.247 20.5701 57.3615 20.8422 57.5167 21.0463C57.6719 21.258 57.8753 21.4092 58.1265 21.4999C58.3778 21.5906 58.6845 21.636 59.0467 21.636C59.3719 21.636 59.6639 21.602 59.9225 21.5339C60.1885 21.4659 60.4215 21.3676 60.6209 21.2392C60.791 21.1257 60.9425 20.9897 61.0756 20.8308C61.2086 20.6721 61.3231 20.4945 61.4191 20.2979V11.6912H64.5124V23.9606H61.7185ZM68.3482 11.6912H74.8781V21.3979H78.1265V23.9606H68.3482V21.3979H71.7629V14.2652H68.3482V11.6912ZM71.5411 8.55008C71.5411 8.30816 71.5817 8.08516 71.6631 7.88104C71.7518 7.66936 71.8737 7.48793 72.0289 7.33674C72.1842 7.1931 72.3688 7.07971 72.5833 6.99656C72.8049 6.9134 73.0488 6.87182 73.3148 6.87182C73.8619 6.87182 74.2942 7.03057 74.6121 7.34808C74.9371 7.65803 75.0999 8.05869 75.0999 8.55008C75.0999 9.04147 74.9371 9.44591 74.6121 9.76341C74.2942 10.0734 73.8619 10.2283 73.3148 10.2283C73.0488 10.2283 72.8049 10.1868 72.5833 10.1036C72.3688 10.0205 72.1842 9.90327 72.0289 9.75207C71.8737 9.60843 71.7518 9.43457 71.6631 9.23045C71.5817 9.01879 71.5411 8.79199 71.5411 8.55008ZM84.8782 7.45014L86.4081 13.6529L88.1487 7.45014H92.0177V23.9606H89.1574V19.0733L89.2905 11.351L87.173 18.5176H85.632L83.7361 11.6571L83.8693 19.0733V23.9606H81.0089V7.45014H84.8782ZM102.295 23.9606C102.221 23.8094 102.158 23.6355 102.106 23.439C102.055 23.2425 102.01 23.0346 101.973 22.8153C101.803 23.0043 101.608 23.1819 101.386 23.3482C101.164 23.5145 100.92 23.6583 100.654 23.7792C100.381 23.9077 100.081 24.0059 99.756 24.074C99.431 24.1496 99.0797 24.1874 98.7029 24.1874C98.0895 24.1874 97.5241 24.0966 97.0067 23.9153C96.4968 23.7338 96.0569 23.4805 95.6873 23.1555C95.3178 22.8304 95.0296 22.4449 94.8226 21.9989C94.6156 21.5452 94.5123 21.0539 94.5123 20.5248C94.5123 19.8444 94.6415 19.2433 94.9002 18.7218C95.159 18.1925 95.5469 17.7579 96.0644 17.4177C96.5299 17.1077 97.1027 16.8733 97.7827 16.7146C98.4702 16.5483 99.2573 16.4651 100.144 16.4651H101.863V15.7393C101.863 15.4521 101.818 15.1951 101.729 14.9683C101.641 14.7339 101.508 14.5336 101.33 14.3673C101.146 14.1934 100.913 14.0611 100.632 13.9704C100.359 13.8721 100.037 13.823 99.6675 13.823C99.3422 13.823 99.0612 13.8646 98.8248 13.9477C98.5882 14.0233 98.3961 14.133 98.2484 14.2766C98.1152 14.4051 98.0154 14.5601 97.9491 14.7415C97.8898 14.9229 97.8604 15.1232 97.8604 15.3425H94.7783C94.7783 14.8209 94.8893 14.3257 95.1109 13.857C95.34 13.3883 95.6725 12.9763 96.1086 12.621C96.5374 12.2657 97.0621 11.986 97.6828 11.7819C98.3112 11.5702 99.0281 11.4644 99.8338 11.4644C100.558 11.4644 101.23 11.5551 101.851 11.7365C102.48 11.9179 103.023 12.1863 103.481 12.5416C103.939 12.8969 104.298 13.3467 104.556 13.891C104.815 14.4278 104.944 15.0515 104.944 15.762V21.0237C104.944 21.6814 104.985 22.2256 105.067 22.6565C105.148 23.0875 105.266 23.4578 105.421 23.7678V23.9606H102.295ZM99.3569 21.7494C99.6674 21.7494 99.9556 21.7115 100.222 21.636C100.488 21.5604 100.728 21.4621 100.942 21.3412C101.157 21.2202 101.341 21.0841 101.497 20.933C101.652 20.7741 101.774 20.6155 101.863 20.4566V18.3476H100.288C99.8078 18.3476 99.3977 18.3966 99.0576 18.4949C98.7177 18.5856 98.4405 18.7142 98.226 18.8805C98.0118 19.0544 97.8529 19.2623 97.7494 19.5042C97.6459 19.7385 97.5942 19.9955 97.5942 20.2753C97.5942 20.4945 97.6311 20.6985 97.7052 20.8876C97.7863 21.069 97.901 21.224 98.0487 21.3525C98.1966 21.4735 98.3776 21.5718 98.5919 21.6474C98.8137 21.7154 99.0688 21.7494 99.3569 21.7494ZM117.051 11.4644C117.517 11.4644 117.945 11.4984 118.337 11.5664C118.736 11.6269 119.058 11.6949 119.301 11.7705L118.847 14.9116C118.44 14.8133 118.023 14.7415 117.594 14.6962C117.173 14.6432 116.77 14.6168 116.386 14.6168C115.987 14.6168 115.625 14.6546 115.299 14.7302C114.981 14.7982 114.697 14.904 114.446 15.0476C114.143 15.214 113.884 15.4257 113.67 15.6827C113.455 15.9398 113.278 16.2421 113.137 16.5899V23.9606H110.055V11.6912H112.927L113.049 13.4261L113.071 13.6983C113.559 13.0028 114.143 12.4585 114.822 12.0654C115.502 11.6647 116.245 11.4644 117.051 11.4644ZM126.585 18.8918L125.188 20.2186V23.9606H122.106V6.54297H125.188V16.4991L126.12 15.4105L129.435 11.6912H133.137L128.614 16.8053L133.769 23.9606H129.989L126.585 18.8918ZM141.53 24.1874C140.606 24.1874 139.767 24.0325 139.014 23.7224C138.259 23.4125 137.612 22.9892 137.073 22.4525C136.533 21.9233 136.116 21.2996 135.82 20.5814C135.532 19.8557 135.388 19.0808 135.388 18.2567V17.8032C135.388 16.8658 135.532 16.0115 135.82 15.2405C136.108 14.4618 136.511 13.7928 137.029 13.2333C137.546 12.6739 138.159 12.2392 138.869 11.9293C139.579 11.6193 140.351 11.4644 141.186 11.4644C142.051 11.4644 142.819 11.6118 143.492 11.9066C144.172 12.1939 144.748 12.6021 145.221 13.1313C145.687 13.6605 146.042 14.2992 146.286 15.0476C146.53 15.7886 146.651 16.6087 146.651 17.5083V18.8465H138.515V18.8805C138.617 19.3719 138.751 19.7688 138.913 20.0711C139.076 20.3659 139.294 20.6344 139.568 20.8763C139.848 21.1257 140.17 21.3185 140.532 21.4545C140.894 21.5906 141.29 21.6587 141.718 21.6587C142.325 21.6587 142.912 21.5415 143.481 21.3072C144.051 21.0727 144.512 20.7212 144.867 20.2526L146.408 21.9534C146.016 22.5205 145.395 23.0346 144.545 23.4957C143.695 23.9569 142.689 24.1874 141.53 24.1874ZM141.164 14.0158C140.817 14.0158 140.499 14.08 140.21 14.2086C139.923 14.3295 139.671 14.5071 139.457 14.7415C139.235 14.9759 139.05 15.2555 138.902 15.5806C138.754 15.9056 138.643 16.2685 138.57 16.6693H143.625V16.4197C143.625 16.0871 143.566 15.7733 143.448 15.4786C143.329 15.1838 143.166 14.9267 142.96 14.7075C142.753 14.4958 142.497 14.3295 142.195 14.2086C141.899 14.08 141.555 14.0158 141.164 14.0158ZM155 8.68615V11.6912H159.479V14.0158H155V19.2887C155 19.7348 155.047 20.109 155.144 20.4113C155.248 20.7061 155.391 20.9404 155.577 21.1143C155.76 21.2958 155.983 21.4243 156.241 21.4999C156.508 21.5755 156.804 21.6134 157.128 21.6134C157.365 21.6134 157.605 21.602 157.848 21.5792C158.1 21.5566 158.34 21.5264 158.57 21.4885C158.791 21.4583 158.998 21.4243 159.19 21.3865C159.391 21.3487 159.561 21.3109 159.7 21.2732L160 23.439C159.786 23.5675 159.534 23.681 159.245 23.7792C158.958 23.8699 158.651 23.9455 158.325 24.0059C158 24.0665 157.66 24.1118 157.305 24.1421C156.959 24.1798 156.614 24.1988 156.274 24.1988C155.617 24.1988 155.018 24.1118 154.478 23.9379C153.946 23.7564 153.491 23.4768 153.116 23.0988C152.731 22.7284 152.436 22.2559 152.228 21.6814C152.021 21.0993 151.917 20.4038 151.917 19.5949V14.0158H149.18V11.6912H151.917V8.68615H155Z" fill="white"/>
<path d="M48.5254 19.6515C48.5254 19.3567 48.4736 19.0808 48.3702 18.8238C48.274 18.5667 48.1078 18.3248 47.8712 18.0981C47.6273 17.8788 47.3096 17.6785 46.9179 17.497C46.5336 17.308 46.0531 17.1341 45.4766 16.9754C44.5823 16.7259 43.7952 16.4236 43.1152 16.0682C42.4426 15.7129 41.8921 15.3237 41.4633 14.9003C41.0346 14.4769 40.7095 14.0082 40.4877 13.4942C40.2734 12.9801 40.1663 12.4207 40.1663 11.8159C40.1663 11.1204 40.3104 10.4891 40.5986 9.92217C40.8869 9.35518 41.286 8.87136 41.7959 8.4707C42.3059 8.07004 42.9083 7.76386 43.6029 7.5522C44.2977 7.33296 45.0517 7.22335 45.8646 7.22335C46.7072 7.22335 47.4759 7.34808 48.1707 7.59755C48.8728 7.84702 49.4752 8.19477 49.9777 8.64078C50.4803 9.09438 50.8721 9.63112 51.1529 10.251C51.4338 10.8709 51.5742 11.5513 51.5742 12.2921H48.5365C48.5217 11.9217 48.4552 11.5815 48.3369 11.2716C48.2261 10.9616 48.0597 10.6933 47.8381 10.4665C47.609 10.2472 47.3244 10.0771 46.9844 9.95619C46.6517 9.82769 46.2601 9.76341 45.8092 9.76341C45.3954 9.76341 45.0259 9.81634 44.7006 9.92217C44.3827 10.0205 44.113 10.1603 43.8912 10.3417C43.6696 10.5307 43.4996 10.7537 43.3813 11.0108C43.2705 11.2602 43.2149 11.5324 43.2149 11.8272C43.2149 12.1372 43.2889 12.4169 43.4367 12.6663C43.5919 12.9158 43.8137 13.1388 44.1019 13.3354C44.3902 13.5395 44.7376 13.7247 45.144 13.891C45.558 14.0573 46.0236 14.2123 46.5409 14.356C47.0953 14.5147 47.6237 14.7075 48.1263 14.9343C48.6289 15.1611 49.0909 15.4218 49.5121 15.7167C50.1477 16.2005 50.654 16.7638 51.0309 17.4063C51.4078 18.0488 51.5963 18.7898 51.5963 19.6289C51.5963 20.3546 51.4522 21.001 51.1639 21.5679C50.8831 22.1273 50.4914 22.5998 49.9888 22.9854C49.4862 23.3785 48.8876 23.6771 48.1928 23.8813C47.498 24.0778 46.7405 24.1761 45.9201 24.1761C45.1144 24.1761 44.3163 24.0552 43.5254 23.8132C42.7419 23.5637 42.0583 23.2009 41.4745 22.7246C40.9201 22.2559 40.4804 21.7041 40.1552 21.069C39.8374 20.4339 39.6785 19.6894 39.6785 18.8351H42.7383C42.7531 19.334 42.8381 19.7612 42.9933 20.1164C43.1485 20.4718 43.3665 20.7628 43.6473 20.9897C43.9208 21.2164 44.2498 21.3828 44.6341 21.4885C45.0258 21.5944 45.4545 21.6474 45.9201 21.6474C46.3339 21.6474 46.6998 21.5982 47.0177 21.4999C47.3428 21.4016 47.6163 21.2656 47.8381 21.0917C48.0597 20.9178 48.2298 20.7099 48.348 20.468C48.4663 20.2186 48.5254 19.9464 48.5254 19.6515ZM61.7182 23.9606L61.5409 22.2369C61.1343 22.8493 60.6429 23.3294 60.0664 23.6771C59.4972 24.0249 58.8726 24.1988 58.1926 24.1988C57.5719 24.1988 57.0028 24.1005 56.4855 23.9039C55.9681 23.7074 55.5247 23.3936 55.155 22.9627C54.7855 22.5394 54.4972 21.9989 54.2904 21.3412C54.0908 20.6759 53.9911 19.8784 53.9911 18.9485V11.6912H57.073V18.9711C57.073 19.4702 57.1063 19.8897 57.1728 20.2299C57.2467 20.5701 57.3613 20.8422 57.5165 21.0463C57.6717 21.258 57.8751 21.4092 58.1263 21.4999C58.3775 21.5906 58.6843 21.636 59.0463 21.636C59.3716 21.636 59.6636 21.602 59.9223 21.5339C60.1883 21.4659 60.4211 21.3676 60.6205 21.2392C60.7907 21.1257 60.9422 20.9897 61.0753 20.8308C61.2083 20.6721 61.3228 20.4945 61.4188 20.2979V11.6912H64.512V23.9606H61.7182ZM68.3479 11.6912H74.8779V21.3979H78.1262V23.9606H68.3479V21.3979H71.7625V14.2652H68.3479V11.6912ZM71.5408 8.55008C71.5408 8.30816 71.5815 8.08516 71.6628 7.88104C71.7516 7.66936 71.8734 7.48793 72.0285 7.33674C72.1839 7.1931 72.3686 7.07971 72.5829 6.99656C72.8047 6.9134 73.0486 6.87182 73.3146 6.87182C73.8617 6.87182 74.2939 7.03057 74.6119 7.34808C74.9369 7.65803 75.0995 8.05869 75.0995 8.55008C75.0995 9.04147 74.9369 9.44591 74.6119 9.76341C74.2939 10.0734 73.8617 10.2283 73.3146 10.2283C73.0486 10.2283 72.8047 10.1868 72.5829 10.1036C72.3686 10.0205 72.1839 9.90327 72.0285 9.75207C71.8734 9.60843 71.7516 9.43457 71.6628 9.23045C71.5815 9.01879 71.5408 8.79199 71.5408 8.55008ZM84.8778 7.45014L86.4078 13.6529L88.1483 7.45014H92.0175V23.9606H89.1572V19.0733L89.2903 11.351L87.1726 18.5176H85.6316L83.7359 11.6571L83.8691 19.0733V23.9606H81.0086V7.45014H84.8778ZM102.295 23.9606C102.221 23.8094 102.158 23.6355 102.106 23.439C102.054 23.2425 102.01 23.0346 101.973 22.8153C101.803 23.0043 101.607 23.1819 101.386 23.3482C101.164 23.5145 100.92 23.6583 100.654 23.7792C100.38 23.9077 100.081 24.0059 99.7558 24.074C99.4306 24.1496 99.0795 24.1874 98.7027 24.1874C98.0891 24.1874 97.5238 24.0966 97.0063 23.9153C96.4964 23.7338 96.0567 23.4805 95.687 23.1555C95.3175 22.8304 95.0293 22.4449 94.8223 21.9989C94.6153 21.5452 94.512 21.0539 94.512 20.5248C94.512 19.8444 94.6412 19.2433 94.8999 18.7218C95.1587 18.1925 95.5466 17.7579 96.0641 17.4177C96.5297 17.1077 97.1025 16.8733 97.7825 16.7146C98.4698 16.5483 99.2569 16.4651 100.144 16.4651H101.862V15.7393C101.862 15.4521 101.818 15.1951 101.729 14.9683C101.64 14.7339 101.507 14.5336 101.33 14.3673C101.145 14.1934 100.913 14.0611 100.632 13.9704C100.358 13.8721 100.037 13.823 99.6672 13.823C99.3419 13.823 99.061 13.8646 98.8244 13.9477C98.588 14.0233 98.3959 14.133 98.2482 14.2766C98.115 14.4051 98.0152 14.5601 97.9489 14.7415C97.8896 14.9229 97.86 15.1232 97.86 15.3425H94.778C94.778 14.8209 94.8889 14.3257 95.1107 13.857C95.3398 13.3883 95.6722 12.9763 96.1084 12.621C96.5372 12.2657 97.0618 11.986 97.6826 11.7819C98.3109 11.5702 99.0278 11.4644 99.8334 11.4644C100.558 11.4644 101.23 11.5551 101.851 11.7365C102.479 11.9179 103.023 12.1863 103.481 12.5416C103.939 12.8969 104.298 13.3467 104.556 13.891C104.815 14.4278 104.944 15.0515 104.944 15.762V21.0237C104.944 21.6814 104.985 22.2256 105.066 22.6565C105.147 23.0875 105.266 23.4578 105.421 23.7678V23.9606H102.295ZM99.3567 21.7494C99.6672 21.7494 99.9553 21.7115 100.221 21.636C100.488 21.5604 100.728 21.4621 100.942 21.3412C101.156 21.2202 101.341 21.0841 101.497 20.933C101.652 20.7741 101.773 20.6155 101.862 20.4566V18.3476H100.288C99.8076 18.3476 99.3973 18.3966 99.0574 18.4949C98.7173 18.5856 98.4401 18.7142 98.2258 18.8805C98.0116 19.0544 97.8527 19.2623 97.7492 19.5042C97.6457 19.7385 97.594 19.9955 97.594 20.2753C97.594 20.4945 97.6309 20.6985 97.705 20.8876C97.7861 21.069 97.9008 21.224 98.0485 21.3525C98.1962 21.4735 98.3774 21.5718 98.5917 21.6474C98.8135 21.7154 99.0686 21.7494 99.3567 21.7494ZM117.051 11.4644C117.516 11.4644 117.945 11.4984 118.337 11.5664C118.736 11.6269 119.057 11.6949 119.301 11.7705L118.847 14.9116C118.44 14.8133 118.022 14.7415 117.594 14.6962C117.173 14.6432 116.77 14.6168 116.385 14.6168C115.986 14.6168 115.624 14.6546 115.299 14.7302C114.981 14.7982 114.697 14.904 114.445 15.0476C114.142 15.214 113.883 15.4257 113.669 15.6827C113.455 15.9398 113.278 16.2421 113.137 16.5899V23.9606H110.055V11.6912H112.927L113.048 13.4261L113.071 13.6983C113.558 13.0028 114.142 12.4585 114.822 12.0654C115.502 11.6647 116.245 11.4644 117.051 11.4644ZM126.585 18.8918L125.188 20.2186V23.9606H122.106V6.54297H125.188V16.4991L126.119 15.4105L129.434 11.6912H133.137L128.614 16.8053L133.769 23.9606H129.989L126.585 18.8918ZM141.53 24.1874C140.605 24.1874 139.767 24.0325 139.014 23.7224C138.259 23.4125 137.612 22.9892 137.073 22.4525C136.533 21.9233 136.116 21.2996 135.82 20.5814C135.532 19.8557 135.388 19.0808 135.388 18.2567V17.8032C135.388 16.8658 135.532 16.0115 135.82 15.2405C136.108 14.4618 136.511 13.7928 137.029 13.2333C137.546 12.6739 138.159 12.2392 138.868 11.9293C139.579 11.6193 140.351 11.4644 141.186 11.4644C142.051 11.4644 142.819 11.6118 143.492 11.9066C144.172 12.1939 144.748 12.6021 145.221 13.1313C145.687 13.6605 146.042 14.2992 146.285 15.0476C146.53 15.7886 146.651 16.6087 146.651 17.5083V18.8465H138.513V18.8805C138.617 19.3719 138.751 19.7688 138.913 20.0711C139.076 20.3659 139.294 20.6344 139.568 20.8763C139.848 21.1257 140.17 21.3185 140.532 21.4545C140.894 21.5906 141.289 21.6587 141.718 21.6587C142.325 21.6587 142.912 21.5415 143.481 21.3072C144.05 21.0727 144.512 20.7212 144.866 20.2526L146.408 21.9534C146.015 22.5205 145.395 23.0346 144.545 23.4957C143.695 23.9569 142.689 24.1874 141.53 24.1874ZM141.164 14.0158C140.817 14.0158 140.498 14.08 140.21 14.2086C139.921 14.3295 139.67 14.5071 139.456 14.7415C139.235 14.9759 139.049 15.2555 138.902 15.5806C138.754 15.9056 138.643 16.2685 138.57 16.6693H143.625V16.4197C143.625 16.0871 143.565 15.7733 143.448 15.4786C143.329 15.1838 143.166 14.9267 142.96 14.7075C142.753 14.4958 142.497 14.3295 142.195 14.2086C141.899 14.08 141.555 14.0158 141.164 14.0158ZM154.999 8.68615V11.6912H159.479V14.0158H154.999V19.2887C154.999 19.7348 155.047 20.109 155.144 20.4113C155.248 20.7061 155.391 20.9404 155.577 21.1143C155.76 21.2958 155.983 21.4243 156.241 21.4999C156.508 21.5755 156.802 21.6134 157.128 21.6134C157.365 21.6134 157.605 21.602 157.848 21.5792C158.1 21.5566 158.34 21.5264 158.57 21.4885C158.791 21.4583 158.998 21.4243 159.19 21.3865C159.389 21.3487 159.56 21.3109 159.7 21.2732L160 23.439C159.786 23.5675 159.534 23.681 159.245 23.7792C158.958 23.8699 158.651 23.9455 158.325 24.0059C158 24.0665 157.66 24.1118 157.305 24.1421C156.958 24.1798 156.614 24.1988 156.274 24.1988C155.617 24.1988 155.018 24.1118 154.478 23.9379C153.946 23.7564 153.491 23.4768 153.115 23.0988C152.73 22.7284 152.434 22.2559 152.228 21.6814C152.021 21.0993 151.917 20.4038 151.917 19.5949V14.0158H149.179V11.6912H151.917V8.68615H154.999Z" fill="white"/>
<path d="M15.4226 19.8697L14.8585 20.3486C12.8823 22.0267 12.9171 25.0882 14.9309 26.7209L16.7617 28.2052C19.0588 30.0675 22.3609 30.0113 24.5931 28.0717L28.7389 24.47C30.5223 22.9205 31.1009 20.2794 29.7099 18.3697C29.2822 17.7823 27.878 18.9772 26.4962 20.426C24.7858 22.2194 21.8486 22.2593 20.2932 20.33C19.0875 18.8344 16.8869 18.6264 15.4226 19.8697Z" fill="#2685F1"/>
<path d="M13.5304 4.47296C9.08356 8.36954 2.32282 14.397 0.935412 16.2195C-0.744502 18.4263 0.257335 21.5136 0.73014 22.6699C0.857331 22.981 1.0564 23.2523 1.29391 23.4901L2.0677 24.2645C2.97215 25.1696 4.43526 25.1817 5.35442 24.2914L14.7382 15.2028C16.5315 13.4659 19.3858 13.4893 21.1503 15.2553L21.5063 15.6115C23.113 17.2195 25.7185 17.2195 27.3252 15.6115C28.9953 13.9401 28.918 11.208 27.1562 9.63364L21.4431 4.52839C19.192 2.51671 15.8011 2.48333 13.5304 4.47296Z" fill="#2685F1"/>
<path d="M13.5304 4.47296C9.08356 8.36954 2.32282 14.397 0.935412 16.2195C-0.744502 18.4263 0.257335 21.5136 0.73014 22.6699C0.857331 22.981 1.0564 23.2523 1.29391 23.4901L2.0677 24.2645C2.97215 25.1696 4.43526 25.1817 5.35442 24.2914L14.7382 15.2028C16.5315 13.4659 19.3858 13.4893 21.1503 15.2553L21.5063 15.6115C23.113 17.2195 25.7185 17.2195 27.3252 15.6115C28.9953 13.9401 28.918 11.208 27.1562 9.63364L21.4431 4.52839C19.192 2.51671 15.8011 2.48333 13.5304 4.47296Z" fill="#2685F1"/>
<path d="M15.4226 19.8697L14.8585 20.3486C12.8823 22.0267 12.9171 25.0882 14.9309 26.7209L16.7617 28.2052C19.0588 30.0675 22.3609 30.0113 24.5931 28.0717L28.7389 24.47C30.5223 22.9205 31.1009 20.2794 29.7099 18.3697C29.2822 17.7823 27.878 18.9772 26.4962 20.426C24.7858 22.2194 21.8486 22.2593 20.2932 20.33C19.0875 18.8344 16.8869 18.6264 15.4226 19.8697Z" fill="#2685F1"/>
</svg>
